<svg width="1043" height="1134" viewBox="0 0 1043 1134" fill="none" xmlns="http://www.w3.org/2000/svg">
<path d="M834.744 77C857.077 102.007 1054.24 203.761 971.245 374.931C865.059 593.918 -4.96911 542.652 1.03089 690.54C7.03089 838.428 470.802 714.024 582.531 690.54C742.531 656.91 912.834 574.657 1029.03 843.171C1087.24 977.692 939.285 1104.54 682.785 1133" stroke="#D0DFEB" stroke-dasharray="10 10"/>
<g clip-path="url(#clip0_421_143)">
<path d="M939.738 1026.67L935.72 1029.12L938.437 1048.93L928.068 1055.24C928.068 1055.24 922.042 1058.91 924.093 1061.41C926.146 1063.92 932.172 1060.25 932.172 1060.25L942.542 1053.94L963.288 1062.78L967.306 1060.33L950.577 1049.05L957.783 1044.67L965.239 1045.5L969.256 1043.05L961.054 1038.92L959.283 1030.87L955.266 1033.32L953.678 1039.65L946.473 1044.04L939.738 1026.67Z" fill="#D6E0E8"/>
</g>
<circle cx="815.5" cy="77.5" r="77.5" fill="#E9F2F9"/>
<defs>
<clipPath id="clip0_421_143">
<rect width="46.0169" height="47.3394" fill="white" transform="matrix(-0.713797 0.700353 -0.795669 -0.605732 979.438 1047.41)"/>
</clipPath>
</defs>
</svg>
